<svg width="25" height="24" viewBox="0 0 25 24" fill="none" xmlns="http://www.w3.org/2000/svg">
<mask id="path-1-outside-1_7_48" maskUnits="userSpaceOnUse" x="0.299622" y="-0.318848" width="24" height="24" fill="black">
<rect fill="white" x="0.299622" y="-0.318848" width="24" height="24"/>
<path fill-rule="evenodd" clip-rule="evenodd" d="M19.5903 18.2124C21.0601 16.564 21.9532 14.3903 21.9532 12.008C21.9532 6.85691 17.7775 2.68115 12.6264 2.68115C7.47538 2.68115 3.29962 6.85691 3.29962 12.008C3.29962 17.159 7.47538 21.3348 12.6264 21.3348C14.3983 21.3348 16.0548 20.8407 17.4656 19.9827L20.0909 20.5459L19.5903 18.2124Z"/>
</mask>
<path d="M19.5903 18.2124L17.8512 16.6619L17.0641 17.5447L17.3122 18.7011L19.5903 18.2124ZM17.4656 19.9827L17.9543 17.7046L17.0475 17.5101L16.255 17.992L17.4656 19.9827ZM20.0909 20.5459L19.6022 22.824L23.1246 23.5796L22.369 20.0572L20.0909 20.5459ZM19.6233 12.008C19.6233 13.7967 18.9551 15.4237 17.8512 16.6619L21.3294 19.763C23.165 17.7042 24.2832 14.9839 24.2832 12.008H19.6233ZM12.6264 5.01111C16.4907 5.01111 19.6233 8.14371 19.6233 12.008H24.2832C24.2832 5.57011 19.0643 0.351192 12.6264 0.351192V5.01111ZM5.62958 12.008C5.62958 8.14371 8.76218 5.01111 12.6264 5.01111V0.351192C6.18858 0.351192 0.969661 5.57011 0.969661 12.008H5.62958ZM12.6264 19.0048C8.76218 19.0048 5.62958 15.8722 5.62958 12.008H0.969661C0.969661 18.4458 6.18858 23.6647 12.6264 23.6647V19.0048ZM16.255 17.992C15.1987 18.6343 13.9594 19.0048 12.6264 19.0048V23.6647C14.8373 23.6647 16.9109 23.047 18.6763 21.9735L16.255 17.992ZM16.977 22.2609L19.6022 22.824L20.5795 18.2677L17.9543 17.7046L16.977 22.2609ZM22.369 20.0572L21.8685 17.7238L17.3122 18.7011L17.8127 21.0345L22.369 20.0572Z" fill="black" mask="url(#path-1-outside-1_7_48)"/>
</svg>
