<svg width="127" height="34" viewBox="0 0 127 34" fill="none" xmlns="http://www.w3.org/2000/svg">
<path d="M2.71275 24.6903C4.46611 26.8806 6.81498 27.9094 9.16379 27.9094C11.1818 27.9094 13.1668 27.1461 14.6886 25.6527C16.8389 23.5951 18.2945 18.6505 18.2945 12.8429C18.2945 8.99335 17.2689 5.21019 14.8539 2.85399C12.9683 1.02876 10.9172 0.298673 9.03146 0.298673C8.13827 0.298673 7.27813 0.464603 6.45105 0.763276C4.43303 1.52655 2.74583 3.11947 2.08418 5.24337C0.694728 7.3009 0 10.7854 0 14.3363C0 18.3518 0.893221 22.4337 2.71275 24.6903ZM5.42549 13.3739C5.55782 13.4071 5.72324 13.4071 5.92173 13.4071C6.48416 13.4071 7.17886 13.3075 7.41046 13.1748C8.07211 12.8098 8.50215 12.1792 8.50215 11.3164C7.64201 11.0509 7.1458 9.39158 7.1458 7.66591C7.1458 5.94028 7.74129 3.2854 9.75927 3.2854C11.7442 3.2854 15.0524 5.90709 15.0524 13.6726C15.0524 19.8783 12.439 25.3209 9.95777 25.3209C7.64201 25.3209 6.25255 20.6416 5.85556 18.9491C5.69015 18.3186 5.35933 15.7965 5.35933 14.2699C5.35933 13.8717 5.35933 13.573 5.42549 13.3739ZM19.6597 16.5597C19.9905 20.3098 20.3544 23.1638 21.3138 24.5243C22.207 25.7523 23.3318 26.2832 24.5558 26.2832C25.1182 26.2832 25.7137 26.1837 26.2761 25.9514C27.3348 25.5531 29.1212 23.6947 29.2866 22.3341C29.3197 22.2013 29.3197 22.0686 29.3197 21.9358C29.3197 20.8075 28.658 20.2102 28.1618 20.2102C28.0956 20.2102 28.0295 20.2434 27.9964 20.2434C27.9964 20.7412 27.6656 21.604 27.2355 22.3009C26.7723 23.031 26.1768 23.6284 25.6145 23.6284C25.4821 23.6284 25.3498 23.5951 25.2175 23.5288C24.5889 23.1638 24.2912 22.1682 24.1589 20.8407C24.0265 19.7124 24.0265 18.385 24.0265 16.8916C24.5227 15.5642 25.2505 13.6062 25.7799 11.4159C26.1107 9.98892 26.3423 8.46237 26.3423 6.96904C26.3423 6.33847 26.3092 5.74116 26.21 5.11063C25.9453 3.31859 24.8205 1.85841 23.5634 1.12832C23.0341 0.829648 22.4716 0.663719 21.9423 0.663719C20.983 0.663719 20.1559 1.22788 19.825 2.5885C19.4942 3.98231 19.3619 6.60396 19.3619 9.39158C19.3619 11.9137 19.4612 14.5686 19.6597 16.5597ZM23.0671 13.042C23.0671 13.042 22.8686 10.9845 22.8686 9.05972C22.8686 6.86945 22.9679 5.67479 23.2326 5.67479C23.7949 5.67479 23.9604 6.43806 23.9604 7.43364C23.9604 7.99777 23.8611 8.76108 23.7949 9.35842C23.5303 11.25 23.0671 13.042 23.0671 13.042ZM36.6063 24.5576C37.4334 25.7855 38.4589 26.4492 39.6499 26.4492C40.0138 26.4492 40.4438 26.3828 40.8408 26.2501C42.4288 25.7523 43.9175 24.2921 44.3476 22.4004C44.4137 22.135 44.4137 21.9027 44.4137 21.7036C44.4137 20.6416 43.7852 20.2102 43.2889 20.2102H43.1235C43.0574 20.6748 42.7927 21.4712 42.3957 22.1018C42.0318 22.6992 41.5356 23.1638 41.0063 23.1638C40.8739 23.1638 40.7416 23.1305 40.5762 23.0642C40.0469 22.7655 39.716 21.1726 39.6499 18.7832C39.6168 18.385 39.6168 17.9535 39.6168 17.4889C39.6168 16.1947 39.683 14.7345 39.8153 13.1416C40.3115 11.7478 41.8333 6.96904 41.8333 4.18142C41.8333 2.19027 40.6093 0.862834 39.2529 0.298673C38.7897 0.0995564 38.2935 0 37.8304 0C36.9371 0 36.2093 0.39823 35.9116 1.19469C35.3823 2.68806 35.25 6.2721 35.25 9.78981C34.6875 9.59069 34.092 9.49117 33.4966 9.49117C32.8349 9.49117 32.1733 9.62391 31.5116 9.82303C29.9898 10.2876 28.8982 12.0464 28.2365 14.2036C27.8064 15.6305 27.5749 17.2234 27.5749 18.7168C27.5749 19.6128 27.641 20.5089 27.8395 21.3053C28.2696 23.2301 29.1297 24.5576 30.056 25.3209C30.7508 25.9182 31.4786 26.2169 32.1402 26.2169C32.4049 26.2169 32.6364 26.1505 32.868 26.0841C33.9597 25.6859 34.9522 23.7279 35.7462 21.8363C35.9446 22.9978 36.2093 23.9934 36.6063 24.5576ZM35.4153 17.323C34.3898 20.0443 33.3973 22.5996 32.6695 22.5996C32.0741 22.5996 31.7763 21.1726 31.7763 19.5133C31.7763 18.7168 31.8424 17.854 31.9748 16.9912C32.2725 15.1991 32.8349 13.4403 33.7612 12.6106C34.2575 12.146 34.7537 11.9469 35.25 11.9469C35.283 14.1372 35.3492 16.1283 35.4153 17.323ZM38.4589 9.29205C38.4589 9.29205 38.3266 7.99777 38.3266 6.70355C38.3266 5.4093 38.4259 4.11505 38.889 4.08187C39.1867 4.08187 39.319 4.41372 39.319 4.9447C39.319 5.44249 39.2198 6.07302 39.0875 6.73671C38.8228 8.03099 38.4589 9.29205 38.4589 9.29205ZM56.3575 23.4956C55.9936 23.2965 55.8613 22.2346 55.8613 20.8407C55.8613 20.0774 55.8943 19.2478 55.9605 18.385C56.1259 15.9956 56.4236 13.5066 56.4236 12.7102C56.4236 11.9137 55.6958 11.1505 54.8688 10.6859C54.3064 10.354 53.6447 10.1549 53.2147 10.1549C52.8508 10.1549 52.5861 10.2876 52.5861 10.6195L52.5199 11.1505C51.5936 9.98892 50.2373 9.39158 48.8147 9.39158C48.1862 9.39158 47.5245 9.49117 46.8959 9.72344C43.9847 10.7854 42.7937 15.0332 42.7937 18.5509C42.7937 19.4469 42.893 20.3098 43.0253 21.0399C43.72 24.458 46.1351 26.0841 47.7561 26.0841C47.9877 26.0841 48.2192 26.051 48.4177 25.9846C50.8658 25.1218 51.5606 20.7744 51.9906 19.8119C51.9906 20.1107 51.9576 20.542 51.9576 21.0399C51.9576 21.7367 52.0237 22.5996 52.4207 23.6284C53.0162 25.2213 54.7365 26.1505 56.1921 26.1505C58.177 26.1505 59.8973 24.3252 60.3605 22.6659C60.4597 22.3341 60.4928 22.0354 60.4928 21.7699C60.4928 20.6084 59.6327 20.2434 59.2687 20.2434C59.1695 20.7412 58.7725 21.7036 58.2101 22.4668C57.7469 23.0974 57.2507 23.5951 56.7214 23.5951C56.5891 23.5951 56.4898 23.562 56.3575 23.4956ZM48.0869 22.6992C47.5576 22.6992 47.326 21.4049 47.326 19.8452C47.326 18.8164 47.4253 17.5885 47.6569 16.4602C47.9877 14.7677 48.5501 13.1748 49.311 12.4115C49.741 11.9801 50.1711 11.781 50.535 11.781C51.2298 11.781 51.8252 12.4447 52.1229 13.4735C51.7591 15.2323 51.1966 17.2234 50.5681 18.916C49.7741 21.073 48.914 22.6992 48.0869 22.6992ZM68.18 23.4624C68.18 23.9934 68.1474 24.7567 68.1142 25.52C67.1214 26.0841 66.2283 26.5156 65.6332 26.8142C63.6149 27.7434 61.4315 28.7722 61.4315 30.5642C61.4315 30.7301 61.4315 30.9293 61.4977 31.1284C62.1262 32.9868 64.6071 33.02 65.9637 33.02C67.5516 32.9204 69.1396 32.3231 70.0991 31.1947C71.1578 29.9337 71.6538 28.1085 71.9185 26.3164C73.5397 25.4536 74.9953 24.458 75.7893 23.3297C76.153 22.8319 76.2853 22.3673 76.2853 21.9691C76.2853 21.1726 75.756 20.5753 75.1935 20.3098C74.6316 21.1394 73.5064 22.135 72.1499 23.0642C72.2164 21.2058 72.2164 20.3761 72.2496 18.9823C72.2822 17.6217 72.3155 15.9956 72.382 14.6349C72.4478 13.4735 72.5469 12.4779 72.5469 12.2788C72.5469 11.5487 71.8852 10.9181 71.1245 10.5531C70.5952 10.2876 70 10.1217 69.5366 10.1217C69.0737 10.1217 68.7426 10.2876 68.7093 10.6195L68.6103 11.2832C67.7172 10.0221 66.3607 9.32521 64.905 9.32521C64.2766 9.32521 63.648 9.45795 63.0194 9.72344C61.2992 10.4867 60.1082 12.2124 59.4796 14.2036C59.0826 15.531 58.8511 16.958 58.8511 18.3518C58.8511 19.3142 58.9503 20.2102 59.1488 21.0399C59.5127 22.6992 60.2074 23.927 61.0676 24.7567C61.9277 25.6195 62.9863 26.051 63.8797 26.051C65.2688 26.051 66.1292 24.9558 66.6253 23.9934C67.4193 22.5332 67.8828 20.6416 68.2133 19.5465C68.2133 19.5465 68.18 21.7699 68.18 23.4624ZM65.6658 12.2124C66.0302 11.8806 66.3607 11.7478 66.6918 11.7478C67.3861 11.7478 67.9486 12.4447 68.2465 13.2411C67.9154 14.9337 67.3861 16.8916 66.8241 18.5841C66.0628 20.8739 65.1365 22.6992 64.3099 22.6992C63.7141 22.6992 63.4826 21.4712 63.4826 20.0111C63.4826 19.1151 63.5818 18.0531 63.7473 17.0243C64.0778 15.0332 64.7069 13.0752 65.6658 12.2124ZM64.8392 30.0001C64.9383 29.7678 65.3685 29.5023 65.9637 29.2036C66.4271 28.9713 67.0223 28.6726 67.684 28.374C67.5516 28.8386 67.3861 29.2368 67.2211 29.5354C66.9232 30.0333 66.493 30.3319 66.0628 30.4979C65.8313 30.5974 65.5667 30.6306 65.3685 30.6306C65.0041 30.6306 64.7727 30.4979 64.7727 30.2655C64.7727 30.1992 64.7727 30.0996 64.8392 30.0001ZM80.5717 9.69028C79.8768 10.2213 79.3475 11.4159 79.3475 12.9093C79.3475 13.208 79.3807 13.5398 79.4139 13.8385C79.2151 14.1372 79.0496 14.4691 78.8514 14.8673C78.8181 13.739 78.7523 12.7765 78.5867 12.2124C78.2556 11.0177 77.5939 10.354 76.8997 9.98892C76.4695 9.78981 76.0392 9.69028 75.6755 9.69028C75.2785 9.69028 74.9473 9.78981 74.7824 9.95577C74.8815 10.0553 74.9147 10.6526 74.9147 11.5818C74.9147 12.8761 74.815 14.8009 74.815 18.2522C74.815 20.7412 74.9147 23.0974 75.3443 24.1593C75.8078 25.2877 76.8997 26.0177 77.9251 26.0177C78.2888 26.0177 78.6858 25.9182 78.9837 25.7191C78.7523 24.2921 78.7191 22.9314 78.7191 21.5708C78.7191 21.239 78.719 20.9403 78.7849 20.6084C79.116 18.6173 79.91 17.2898 80.6375 16.9248C81.5638 18.0199 83.0194 18.7168 84.5748 18.7168C86.3941 18.7168 88.2135 17.6881 88.2135 15.8629C88.2135 14.8673 87.6183 14.2036 86.9235 14.2036C86.7579 15.1659 85.8316 16.1283 84.8394 16.1283C84.7397 16.1283 84.6739 16.1283 84.5748 16.0951C83.2182 15.8296 82.7548 14.4691 82.7548 14.4691C82.7548 14.4691 83.979 13.042 83.979 12.0133C83.979 10.6195 82.4901 9.4248 81.3656 9.4248C81.0677 9.4248 80.8031 9.52432 80.5717 9.69028ZM99.0996 23.4956C98.7359 23.2965 98.6036 22.2346 98.6036 20.8407C98.6036 20.0774 98.6362 19.2478 98.7027 18.385C98.8682 15.9956 99.1655 13.5066 99.1655 12.7102C99.1655 11.9137 98.438 11.1505 97.6108 10.6859C97.0482 10.354 96.3866 10.1549 95.957 10.1549C95.5926 10.1549 95.3279 10.2876 95.3279 10.6195L95.2621 11.1505C94.3358 9.98892 92.9793 9.39158 91.5569 9.39158C90.9285 9.39158 90.2668 9.49117 89.6378 9.72344C86.7266 10.7854 85.5356 15.0332 85.5356 18.5509C85.5356 19.4469 85.6353 20.3098 85.7677 21.0399C86.4619 24.458 88.8771 26.0841 90.4983 26.0841C90.7297 26.0841 90.9611 26.051 91.1599 25.9846C93.6077 25.1218 94.3026 20.7744 94.7328 19.8119C94.7328 20.1107 94.6995 20.542 94.6995 21.0399C94.6995 21.7367 94.766 22.5996 95.163 23.6284C95.7582 25.2213 97.4785 26.1505 98.9341 26.1505C100.919 26.1505 102.639 24.3252 103.103 22.6659C103.202 22.3341 103.235 22.0354 103.235 21.7699C103.235 20.6084 102.375 20.2434 102.011 20.2434C101.912 20.7412 101.515 21.7036 100.952 22.4668C100.489 23.0974 99.9927 23.5951 99.4634 23.5951C99.3311 23.5951 99.232 23.562 99.0996 23.4956ZM90.8288 22.6992C90.2994 22.6992 90.068 21.4049 90.068 19.8452C90.068 18.8164 90.1671 17.5885 90.3992 16.4602C90.7297 14.7677 91.2922 13.1748 92.053 12.4115C92.4832 11.9801 92.9134 11.781 93.2772 11.781C93.9721 11.781 94.5672 12.4447 94.8651 13.4735C94.5014 15.2323 93.9388 17.2234 93.3104 18.916C92.5164 21.073 91.656 22.6992 90.8288 22.6992ZM123.427 26.1837C124.784 25.7855 126.405 24.1925 126.868 22.5332C126.967 22.2346 127 21.9691 127 21.7367C127 20.708 126.306 20.1438 125.776 20.1438C125.71 20.5089 125.379 21.3385 124.949 22.1018C124.486 22.9314 123.857 23.6284 123.262 23.6284C123.097 23.6284 122.964 23.5951 122.799 23.4956C122.468 23.2965 122.402 22.3341 122.402 21.0399C122.402 20.0443 122.435 18.8827 122.501 17.7213C122.567 16.6925 122.601 15.6305 122.601 14.7677C122.601 13.9712 122.567 13.3075 122.435 12.9093C122.038 11.5487 121.211 10.719 120.318 10.2876C119.722 9.98892 119.093 9.85618 118.531 9.85618C117.969 9.85618 117.44 9.98892 117.142 10.2213C116.48 10.6859 115.884 11.5818 115.422 12.6438C114.892 13.8717 114.396 15.4978 113.966 17.0907C113.999 16.9248 113.999 16.5597 113.999 16.0951C113.999 15.0996 113.899 13.6062 113.47 12.4115C112.973 11.0177 111.485 9.92255 109.996 9.92255C109.368 9.92255 108.772 10.1217 108.209 10.5531C106.787 11.7146 105.728 16.9912 105.563 17.854C105.662 16.7588 105.761 15.6637 105.761 14.5686C105.761 13.4735 105.662 12.3783 105.398 11.781C104.901 10.7522 103.876 10.188 102.85 10.188C102.487 10.188 102.09 10.2544 101.758 10.4204C101.924 10.9845 101.99 11.9801 101.99 13.2411C101.99 14.7013 101.924 16.5266 101.825 18.1859C101.725 19.8119 101.659 21.3717 101.659 22.4337C101.659 22.865 101.659 23.2301 101.693 23.4624C101.857 25.0222 103.644 25.8518 104.835 25.8518C105.199 25.8518 105.497 25.7855 105.695 25.6195C105.662 25.52 105.629 25.354 105.629 25.1218C105.629 24.0266 106.125 21.6704 106.787 19.3142C107.68 16.1283 108.871 13.0089 109.599 13.0089C110.095 13.0089 110.227 14.3363 110.227 16.0288C110.227 16.9912 110.162 18.0863 110.128 19.1151C110.062 20.7744 109.93 22.4004 109.93 23.3629C109.93 23.6284 109.93 23.8275 109.963 23.9934C110.095 25.1549 111.452 25.7855 112.609 25.7855C113.073 25.7855 113.536 25.6859 113.867 25.4536C113.834 25.3872 113.834 25.2545 113.834 25.1218C113.834 24.1593 114.396 21.6704 115.124 19.1814C116.05 16.062 117.274 12.9757 117.969 12.9757C118.465 12.9757 118.564 13.9049 118.564 15.0332C118.564 16.3606 118.399 18.1195 118.399 19.8119C118.399 20.9735 118.498 22.1018 118.73 22.9978C119.226 24.9558 121.078 26.2832 122.7 26.2832C122.964 26.2832 123.196 26.2501 123.427 26.1837Z" fill="black"/>
</svg>
